<?xml version="1.0" encoding="UTF-8" standalone="no"?>
<!-- Uploaded to: SVG Repo, www.svgrepo.com, Generator: SVG Repo Mixer Tools -->

<svg
   version="1.1"
   id="Layer_1"
   viewBox="0 0 512 512"
   xml:space="preserve"
   sodipodi:docname="svgtext.svg"
   inkscape:version="1.4.2 (f4327f4, 2025-05-13)"
   xmlns:inkscape="http://www.inkscape.org/namespaces/inkscape"
   xmlns:sodipodi="http://sodipodi.sourceforge.net/DTD/sodipodi-0.dtd"
   xmlns="http://www.w3.org/2000/svg"
   xmlns:svg="http://www.w3.org/2000/svg"><defs
   id="defs8" /><sodipodi:namedview
   id="namedview8"
   pagecolor="#ffffff"
   bordercolor="#000000"
   borderopacity="0.25"
   inkscape:showpageshadow="2"
   inkscape:pageopacity="0.0"
   inkscape:pagecheckerboard="0"
   inkscape:deskcolor="#d1d1d1"
   inkscape:zoom="2.5097656"
   inkscape:cx="256"
   inkscape:cy="255.80078"
   inkscape:window-width="2560"
   inkscape:window-height="1566"
   inkscape:window-x="-11"
   inkscape:window-y="-11"
   inkscape:window-maximized="1"
   inkscape:current-layer="Layer_1" />
<circle
   cx="256"
   cy="256"
   r="256"
   id="circle1"
   style="fill:#420060;fill-opacity:1" />
<g
   id="g1">
	<path
   style="fill:#FFFFFF;"
   d="M384.64,346.48H127.36c-12.88,0-23.36-10.56-23.36-23.36V159.36c0-12.88,10.56-23.36,23.36-23.36   h257.2c12.88,0,23.36,10.56,23.36,23.36v163.68C408,335.92,397.44,346.48,384.64,346.48z"
   id="path1" />
	<polygon
   style="fill:#FFFFFF;"
   points="337.84,416.64 337.84,323.04 220.96,323.04  "
   id="polygon1" />
</g>
<rect
   x="244.32"
   y="206.16"
   width="23.36"
   height="23.36"
   id="rect1" />
<rect
   x="197.52"
   y="206.16"
   width="23.36"
   height="23.36"
   id="rect2" />
<rect
   x="150.8"
   y="206.16"
   width="23.36"
   height="23.36"
   id="rect3" />
<rect
   x="291.04"
   y="206.16"
   width="23.36"
   height="23.36"
   id="rect4" />
<rect
   x="337.84"
   y="206.16"
   width="23.36"
   height="23.36"
   id="rect5" />
<rect
   x="244.32"
   y="252.96"
   width="23.36"
   height="23.36"
   id="rect6" />
<rect
   x="291.04"
   y="252.96"
   width="23.36"
   height="23.36"
   id="rect7" />
<rect
   x="337.84"
   y="252.96"
   width="23.36"
   height="23.36"
   id="rect8" />
</svg>
